# xmcd
#
# Track frame offsets:
#	150
#	19483
#	38225
#	56083
#	75396
#	101369
#	121639
#	140050
#	159600
#	178941
#	189604
#
# Disc length: 2917 seconds
#
# Revision: 0
# Processed by: cddbd v1.5.2PL0 Copyright (c) Steve Scherf et al.
# Submitted via: audiograbber 1.83.01
#
DISCID=920b630b
DTITLE=Impius Mundi - Diese Nacht...
DYEAR=2013
DGENRE=Rock
TTITLE0=Auf das Leben
TTITLE1=Scharlatan
TTITLE2=Zeit, Teufel und Tod
TTITLE3=Die Alten Fehler
TTITLE4=Mit Dem Nebel
TTITLE5=Herr  Rossi
TTITLE6=Ewig Allein
TTITLE7=Aus Deinem Reiche
TTITLE8=Die Götter Sind Uns Wohlgewogen
TTITLE9=All voll
TTITLE10=Diese Nacht
EXTD=
EXTT0=
EXTT1=
EXTT2=
EXTT3=
EXTT4=
EXTT5=
EXTT6=
EXTT7=
EXTT8=
EXTT9=
EXTT10=
PLAYORDER=
